<svg width="21" height="20" viewBox="0 0 21 20" fill="none" xmlns="http://www.w3.org/2000/svg">
<path d="M6.5 16C6.89782 16 7.27936 16.158 7.56066 16.4393C7.84196 16.7206 8 17.1022 8 17.5C8 17.8978 7.84196 18.2794 7.56066 18.5607C7.27936 18.842 6.89782 19 6.5 19C6.10218 19 5.72064 18.842 5.43934 18.5607C5.15804 18.2794 5 17.8978 5 17.5C5 17.1022 5.15804 16.7206 5.43934 16.4393C5.72064 16.158 6.10218 16 6.5 16ZM15.5 16C15.8978 16 16.2794 16.158 16.5607 16.4393C16.842 16.7206 17 17.1022 17 17.5C17 17.8978 16.842 18.2794 16.5607 18.5607C16.2794 18.842 15.8978 19 15.5 19C15.1022 19 14.7206 18.842 14.4393 18.5607C14.158 18.2794 14 17.8978 14 17.5C14 17.1022 14.158 16.7206 14.4393 16.4393C14.7206 16.158 15.1022 16 15.5 16Z" stroke="#26B195" stroke-width="1.5"/>
<path d="M1.24902 0.292022C1.06125 0.225983 0.854932 0.237241 0.67546 0.323321C0.495988 0.4094 0.358061 0.563249 0.292022 0.751022C0.225983 0.938795 0.237242 1.14511 0.323321 1.32458C0.4094 1.50406 0.563249 1.64198 0.751022 1.70802L1.24902 0.292022ZM19.658 7.88302L20.392 8.03402L20.393 8.03002L19.658 7.88302ZM19.734 4.69802L19.14 5.15402L19.735 4.69702L19.734 4.69802ZM4.70802 7.76002V5.03802H3.20802V7.76002H4.70802ZM1.51002 0.384022L1.24902 0.292022L0.751022 1.70802L1.01202 1.79902L1.51002 0.384022ZM9.93802 14.25H15.24V12.75H9.93802V14.25ZM4.70802 5.03802C4.70802 4.33102 4.70902 3.74102 4.65802 3.26202C4.60302 2.76502 4.48802 2.31202 4.20602 1.90002L2.96702 2.74602C3.05702 2.87802 3.12702 3.06002 3.16602 3.42302C3.20702 3.80302 3.20802 4.29802 3.20802 5.03802H4.70802ZM1.01202 1.79902C1.68002 2.03402 2.11902 2.19002 2.44202 2.35002C2.74502 2.49802 2.87902 2.61802 2.96702 2.74702L4.20602 1.90002C3.92202 1.48402 3.54302 1.21802 3.10202 1.00102C2.68202 0.795022 2.14402 0.607022 1.51002 0.384022L1.01202 1.79902ZM3.20802 7.76002C3.20802 9.21302 3.22202 10.26 3.35802 11.06C3.50502 11.914 3.79802 12.526 4.34302 13.102L5.43202 12.07C5.11202 11.732 4.93902 11.402 4.83702 10.807C4.72702 10.157 4.70802 9.24902 4.70802 7.76002H3.20802ZM9.93802 12.75C8.52102 12.75 7.53802 12.748 6.79702 12.643C6.08202 12.542 5.70502 12.358 5.43202 12.07L4.34302 13.102C4.93702 13.729 5.69002 14.002 6.58602 14.128C7.45602 14.252 8.56702 14.25 9.93802 14.25V12.75ZM3.95802 4.87002H16.088V3.37002H3.95902L3.95802 4.87002ZM18.923 7.73102L18.423 10.156L19.893 10.458L20.392 8.03402L18.923 7.73102ZM16.09 4.87002C16.946 4.87002 17.7 4.87102 18.295 4.93702C18.59 4.97102 18.812 5.01702 18.967 5.07102C19.128 5.12802 19.154 5.17102 19.141 5.15402L20.33 4.24002C20.095 3.93402 19.765 3.76102 19.464 3.65602C19.1385 3.54901 18.8021 3.47858 18.461 3.44602C17.766 3.36902 16.918 3.37002 16.09 3.37002V4.87002ZM20.393 8.03002C20.563 7.18202 20.707 6.47002 20.742 5.90002C20.779 5.31402 20.712 4.73602 20.33 4.24002L19.141 5.15402C19.203 5.23502 19.271 5.38002 19.245 5.80802C19.218 6.25202 19.101 6.84502 18.923 7.73602L20.393 8.03002ZM15.24 14.25C16.002 14.25 16.642 14.251 17.158 14.188C17.693 14.123 18.182 13.979 18.608 13.632L17.66 12.469C17.535 12.571 17.358 12.653 16.975 12.699C16.572 12.749 16.04 12.75 15.24 12.75V14.25ZM18.425 10.156C18.263 10.939 18.155 11.459 18.025 11.844C17.902 12.21 17.785 12.367 17.66 12.469L18.608 13.632C19.035 13.284 19.274 12.835 19.446 12.323C19.612 11.831 19.74 11.205 19.894 10.459L18.425 10.156Z" fill="#26B195"/>
</svg>
