<svg width="21" height="22" viewBox="0 0 21 22" fill="none" xmlns="http://www.w3.org/2000/svg">
<path d="M9.77204 2.74395C10.8827 1.63912 12.3815 1.01252 13.9481 0.998059C15.5146 0.983601 17.0247 1.58243 18.1556 2.66658C19.2865 3.75073 19.9485 5.2342 20.0002 6.79998C20.0518 8.36575 19.489 9.88963 18.432 11.046L18.243 11.243L9.44304 20.041L9.40704 20.071C8.7219 20.6878 7.83225 21.0286 6.91032 21.0272C5.9884 21.0258 5.09978 20.6824 4.4165 20.0634C3.73322 19.4445 3.30389 18.5941 3.21162 17.6768C3.11935 16.7595 3.37071 15.8406 3.91704 15.098C3.94086 15.0518 3.96934 15.0083 4.00204 14.968L4.05604 14.908L4.14304 14.82L4.28404 14.672L4.28704 14.675L11.723 7.22095C11.8499 7.09379 12.0182 7.01637 12.1973 7.00279C12.3764 6.98921 12.5545 7.04037 12.699 7.14696L12.783 7.21996C12.9102 7.34682 12.9876 7.51511 13.0012 7.69422C13.0148 7.87333 12.9636 8.05137 12.857 8.19596L12.785 8.27995L5.19004 15.893C4.83852 16.3242 4.66093 16.8714 4.69213 17.4269C4.72334 17.9824 4.96108 18.5062 5.35869 18.8954C5.75629 19.2846 6.28503 19.5111 6.84108 19.5305C7.39714 19.5498 7.94034 19.3606 8.36404 19L17.197 10.17C18.0155 9.33749 18.4786 8.21964 18.4886 7.05225C18.4986 5.88487 18.0547 4.75924 17.2507 3.91287C16.4466 3.0665 15.3452 2.56557 14.1788 2.51577C13.0124 2.46597 11.8723 2.8712 10.999 3.64595L10.831 3.80596L10.819 3.81996L1.28204 13.356C1.14821 13.4901 0.968545 13.5687 0.779162 13.5758C0.589778 13.5829 0.40472 13.5181 0.261195 13.3943C0.117669 13.2706 0.0263198 13.0971 0.00551255 12.9087C-0.0152947 12.7203 0.0359831 12.5311 0.149036 12.379L0.222036 12.295L9.77104 2.74495L9.77204 2.74395Z" fill="#379BC4"/>
</svg>
