<svg width="21" height="20" viewBox="0 0 21 20" fill="none" xmlns="http://www.w3.org/2000/svg">
<path d="M20.995 20.0001H21V12.6641C21 9.07607 20.227 6.31207 16.032 6.31207C15.2443 6.28289 14.4635 6.46802 13.7728 6.84771C13.0821 7.2274 12.5074 7.78742 12.11 8.46807H12.051V6.64707H8.07397V20.0001H12.216V13.3881C12.216 11.6471 12.546 9.96407 14.702 9.96407C16.826 9.96407 16.858 11.9511 16.858 13.5001V20.0001H20.995Z" fill="black"/>
<path d="M1.32996 6.64795H5.47696V19.9999H1.32996V6.64795Z" fill="black"/>
<path d="M3.39997 3.48469e-05C2.92162 -0.00253535 2.45331 0.137125 2.05451 0.401278C1.6557 0.66543 1.34441 1.04215 1.16017 1.4836C0.975924 1.92504 0.927044 2.41129 1.01974 2.88057C1.11243 3.34986 1.34251 3.781 1.68075 4.11925C2.019 4.45749 2.45014 4.68757 2.91943 4.78026C3.38871 4.87296 3.87496 4.82408 4.3164 4.63983C4.75785 4.45559 5.13457 4.1443 5.39872 3.74549C5.66287 3.34669 5.80254 2.87838 5.79997 2.40003C5.79997 1.76352 5.54711 1.15307 5.09702 0.702979C4.64693 0.252891 4.03649 3.48469e-05 3.39997 3.48469e-05Z" fill="black"/>
</svg>
