<svg width="105" height="51" viewBox="0 0 105 51" fill="none" xmlns="http://www.w3.org/2000/svg">
<path d="M91.2231 20.3007V6.38004H82.4814L83.579 4.49976H93.1431V18.0756L91.2231 20.3007Z" fill="#1C2E5A"/>
<mask id="mask0_95_441" style="mask-type:luminance" maskUnits="userSpaceOnUse" x="61" y="0" width="27" height="26">
<path d="M68.6328 25.8906C68.4078 25.8906 67.5832 25.3538 66.1879 24.2952C64.7927 23.2366 63.4005 22.0971 62.0473 20.9065C61.7264 20.6816 61.5645 20.4852 61.5645 20.3255L61.8568 19.8899L67.8088 12.6792L68.1949 12.4378C68.4198 12.4378 70.5753 13.9889 74.7767 17.1797L80.2938 10.5012L80.6829 10.2598C80.97 10.2598 83.1847 11.823 87.2646 14.9081L87.6995 15.2942L87.8937 15.6338L87.6013 16.1653L81.7468 23.2321C81.5218 23.553 81.3449 23.715 81.2152 23.715C80.9903 23.715 80.1176 23.1534 78.5522 21.9974C77.0131 20.8578 75.6943 19.7917 74.6342 18.8283L69.1658 25.4101C68.9401 25.7279 68.7617 25.8906 68.6328 25.8906ZM74.4873 13.2115C74.2624 13.2115 73.3912 12.6417 71.897 11.5179C70.4028 10.394 69.1096 9.33394 68.0517 8.36906C67.7294 8.14414 67.5659 7.94847 67.5659 7.78878L73.5636 0.239159L73.955 0C74.2121 0 76.3451 1.51442 80.2938 4.49828L80.7316 4.88589L80.9228 5.22326L80.6342 5.75705L75.0203 12.7294C74.7954 13.0488 74.6162 13.2115 74.4873 13.2115Z" fill="white"/>
</mask>
<g mask="url(#mask0_95_441)">
<path d="M87.8925 6.29202L73.2378 -3.4685L87.8925 -11.0316V6.29202Z" fill="#EE4D42"/>
</g>
<mask id="mask1_95_441" style="mask-type:luminance" maskUnits="userSpaceOnUse" x="61" y="0" width="27" height="26">
<path d="M68.6328 25.8906C68.4078 25.8906 67.5832 25.3538 66.1879 24.2952C64.7927 23.2366 63.4005 22.0971 62.0473 20.9065C61.7264 20.6816 61.5645 20.4852 61.5645 20.3255L61.8568 19.8899L67.8088 12.6792L68.1949 12.4378C68.4198 12.4378 70.5753 13.9889 74.7767 17.1797L80.2938 10.5012L80.6829 10.2598C80.97 10.2598 83.1847 11.823 87.2646 14.9081L87.6995 15.2942L87.8937 15.6338L87.6013 16.1653L81.7468 23.2321C81.5218 23.553 81.3449 23.715 81.2152 23.715C80.9903 23.715 80.1176 23.1534 78.5522 21.9974C77.0131 20.8578 75.6943 19.7917 74.6342 18.8283L69.1658 25.4101C68.9401 25.7279 68.7617 25.8906 68.6328 25.8906ZM74.4873 13.2115C74.2624 13.2115 73.3912 12.6417 71.897 11.5179C70.4028 10.394 69.1096 9.33394 68.0517 8.36906C67.7294 8.14414 67.5659 7.94847 67.5659 7.78878L73.5636 0.239159L73.955 0C74.2121 0 76.3451 1.51442 80.2938 4.49828L80.7316 4.88589L80.9228 5.22326L80.6342 5.75705L75.0203 12.7294C74.7954 13.0488 74.6162 13.2115 74.4873 13.2115Z" fill="white"/>
</mask>
<g mask="url(#mask1_95_441)">
<path d="M73.2378 -3.46851L81.5101 16.3854L87.8917 6.29127L73.2378 -3.46851Z" fill="#1D66A6"/>
</g>
<mask id="mask2_95_441" style="mask-type:luminance" maskUnits="userSpaceOnUse" x="61" y="0" width="27" height="26">
<path d="M68.6328 25.8906C68.4078 25.8906 67.5832 25.3538 66.1879 24.2952C64.7927 23.2366 63.4005 22.0971 62.0473 20.9065C61.7264 20.6816 61.5645 20.4852 61.5645 20.3255L61.8568 19.8899L67.8088 12.6792L68.1949 12.4378C68.4198 12.4378 70.5753 13.9889 74.7767 17.1797L80.2938 10.5012L80.6829 10.2598C80.97 10.2598 83.1847 11.823 87.2646 14.9081L87.6995 15.2942L87.8937 15.6338L87.6013 16.1653L81.7468 23.2321C81.5218 23.553 81.3449 23.715 81.2152 23.715C80.9903 23.715 80.1176 23.1534 78.5522 21.9974C77.0131 20.8578 75.6943 19.7917 74.6342 18.8283L69.1658 25.4101C68.9401 25.7279 68.7617 25.8906 68.6328 25.8906ZM74.4873 13.2115C74.2624 13.2115 73.3912 12.6417 71.897 11.5179C70.4028 10.394 69.1096 9.33394 68.0517 8.36906C67.7294 8.14414 67.5659 7.94847 67.5659 7.78878L73.5636 0.239159L73.955 0C74.2121 0 76.3451 1.51442 80.2938 4.49828L80.7316 4.88589L80.9228 5.22326L80.6342 5.75705L75.0203 12.7294C74.7954 13.0488 74.6162 13.2115 74.4873 13.2115Z" fill="white"/>
</mask>
<g mask="url(#mask2_95_441)">
<path d="M87.8918 26.6674L81.5103 16.3858L87.8918 6.29163V26.6674Z" fill="#1C2E5A"/>
</g>
<mask id="mask3_95_441" style="mask-type:luminance" maskUnits="userSpaceOnUse" x="61" y="0" width="27" height="26">
<path d="M68.6328 25.8906C68.4078 25.8906 67.5832 25.3538 66.1879 24.2952C64.7927 23.2366 63.4005 22.0971 62.0473 20.9065C61.7264 20.6816 61.5645 20.4852 61.5645 20.3255L61.8568 19.8899L67.8088 12.6792L68.1949 12.4378C68.4198 12.4378 70.5753 13.9889 74.7767 17.1797L80.2938 10.5012L80.6829 10.2598C80.97 10.2598 83.1847 11.823 87.2646 14.9081L87.6995 15.2942L87.8937 15.6338L87.6013 16.1653L81.7468 23.2321C81.5218 23.553 81.3449 23.715 81.2152 23.715C80.9903 23.715 80.1176 23.1534 78.5522 21.9974C77.0131 20.8578 75.6943 19.7917 74.6342 18.8283L69.1658 25.4101C68.9401 25.7279 68.7617 25.8906 68.6328 25.8906ZM74.4873 13.2115C74.2624 13.2115 73.3912 12.6417 71.897 11.5179C70.4028 10.394 69.1096 9.33394 68.0517 8.36906C67.7294 8.14414 67.5659 7.94847 67.5659 7.78878L73.5636 0.239159L73.955 0C74.2121 0 76.3451 1.51442 80.2938 4.49828L80.7316 4.88589L80.9228 5.22326L80.6342 5.75705L75.0203 12.7294C74.7954 13.0488 74.6162 13.2115 74.4873 13.2115Z" fill="white"/>
</mask>
<g mask="url(#mask3_95_441)">
<path d="M61.4207 13.1977L59.9888 -9.96851L73.2392 -3.46924L61.4207 13.1977Z" fill="#1D66A6"/>
</g>
<mask id="mask4_95_441" style="mask-type:luminance" maskUnits="userSpaceOnUse" x="61" y="0" width="27" height="26">
<path d="M68.6328 25.8906C68.4078 25.8906 67.5832 25.3538 66.1879 24.2952C64.7927 23.2366 63.4005 22.0971 62.0473 20.9065C61.7264 20.6816 61.5645 20.4852 61.5645 20.3255L61.8568 19.8899L67.8088 12.6792L68.1949 12.4378C68.4198 12.4378 70.5753 13.9889 74.7767 17.1797L80.2938 10.5012L80.6829 10.2598C80.97 10.2598 83.1847 11.823 87.2646 14.9081L87.6995 15.2942L87.8937 15.6338L87.6013 16.1653L81.7468 23.2321C81.5218 23.553 81.3449 23.715 81.2152 23.715C80.9903 23.715 80.1176 23.1534 78.5522 21.9974C77.0131 20.8578 75.6943 19.7917 74.6342 18.8283L69.1658 25.4101C68.9401 25.7279 68.7617 25.8906 68.6328 25.8906ZM74.4873 13.2115C74.2624 13.2115 73.3912 12.6417 71.897 11.5179C70.4028 10.394 69.1096 9.33394 68.0517 8.36906C67.7294 8.14414 67.5659 7.94847 67.5659 7.78878L73.5636 0.239159L73.955 0C74.2121 0 76.3451 1.51442 80.2938 4.49828L80.7316 4.88589L80.9228 5.22326L80.6342 5.75705L75.0203 12.7294C74.7954 13.0488 74.6162 13.2115 74.4873 13.2115Z" fill="white"/>
</mask>
<g mask="url(#mask4_95_441)">
<path d="M81.513 16.3854L61.4207 13.1946L73.2384 -3.46851L81.513 16.3854Z" fill="#26B195"/>
</g>
<mask id="mask5_95_441" style="mask-type:luminance" maskUnits="userSpaceOnUse" x="61" y="0" width="27" height="26">
<path d="M68.6328 25.8906C68.4078 25.8906 67.5832 25.3538 66.1879 24.2952C64.7927 23.2366 63.4005 22.0971 62.0473 20.9065C61.7264 20.6816 61.5645 20.4852 61.5645 20.3255L61.8568 19.8899L67.8088 12.6792L68.1949 12.4378C68.4198 12.4378 70.5753 13.9889 74.7767 17.1797L80.2938 10.5012L80.6829 10.2598C80.97 10.2598 83.1847 11.823 87.2646 14.9081L87.6995 15.2942L87.8937 15.6338L87.6013 16.1653L81.7468 23.2321C81.5218 23.553 81.3449 23.715 81.2152 23.715C80.9903 23.715 80.1176 23.1534 78.5522 21.9974C77.0131 20.8578 75.6943 19.7917 74.6342 18.8283L69.1658 25.4101C68.9401 25.7279 68.7617 25.8906 68.6328 25.8906ZM74.4873 13.2115C74.2624 13.2115 73.3912 12.6417 71.897 11.5179C70.4028 10.394 69.1096 9.33394 68.0517 8.36906C67.7294 8.14414 67.5659 7.94847 67.5659 7.78878L73.5636 0.239159L73.955 0C74.2121 0 76.3451 1.51442 80.2938 4.49828L80.7316 4.88589L80.9228 5.22326L80.6342 5.75705L75.0203 12.7294C74.7954 13.0488 74.6162 13.2115 74.4873 13.2115Z" fill="white"/>
</mask>
<g mask="url(#mask5_95_441)">
<path d="M77.4336 37.1266L81.5105 16.3865L87.8921 26.6681L77.4336 37.1266Z" fill="#26B195"/>
</g>
<mask id="mask6_95_441" style="mask-type:luminance" maskUnits="userSpaceOnUse" x="61" y="0" width="27" height="26">
<path d="M68.6328 25.8906C68.4078 25.8906 67.5832 25.3538 66.1879 24.2952C64.7927 23.2366 63.4005 22.0971 62.0473 20.9065C61.7264 20.6816 61.5645 20.4852 61.5645 20.3255L61.8568 19.8899L67.8088 12.6792L68.1949 12.4378C68.4198 12.4378 70.5753 13.9889 74.7767 17.1797L80.2938 10.5012L80.6829 10.2598C80.97 10.2598 83.1847 11.823 87.2646 14.9081L87.6995 15.2942L87.8937 15.6338L87.6013 16.1653L81.7468 23.2321C81.5218 23.553 81.3449 23.715 81.2152 23.715C80.9903 23.715 80.1176 23.1534 78.5522 21.9974C77.0131 20.8578 75.6943 19.7917 74.6342 18.8283L69.1658 25.4101C68.9401 25.7279 68.7617 25.8906 68.6328 25.8906ZM74.4873 13.2115C74.2624 13.2115 73.3912 12.6417 71.897 11.5179C70.4028 10.394 69.1096 9.33394 68.0517 8.36906C67.7294 8.14414 67.5659 7.94847 67.5659 7.78878L73.5636 0.239159L73.955 0C74.2121 0 76.3451 1.51442 80.2938 4.49828L80.7316 4.88589L80.9228 5.22326L80.6342 5.75705L75.0203 12.7294C74.7954 13.0488 74.6162 13.2115 74.4873 13.2115Z" fill="white"/>
</mask>
<g mask="url(#mask6_95_441)">
<path d="M61.4207 13.1951L69.043 28.7944L81.513 16.3859L61.4207 13.1951Z" fill="#72CACD"/>
</g>
<mask id="mask7_95_441" style="mask-type:luminance" maskUnits="userSpaceOnUse" x="61" y="0" width="27" height="26">
<path d="M68.6328 25.8906C68.4078 25.8906 67.5832 25.3538 66.1879 24.2952C64.7927 23.2366 63.4005 22.0971 62.0473 20.9065C61.7264 20.6816 61.5645 20.4852 61.5645 20.3255L61.8568 19.8899L67.8088 12.6792L68.1949 12.4378C68.4198 12.4378 70.5753 13.9889 74.7767 17.1797L80.2938 10.5012L80.6829 10.2598C80.97 10.2598 83.1847 11.823 87.2646 14.9081L87.6995 15.2942L87.8937 15.6338L87.6013 16.1653L81.7468 23.2321C81.5218 23.553 81.3449 23.715 81.2152 23.715C80.9903 23.715 80.1176 23.1534 78.5522 21.9974C77.0131 20.8578 75.6943 19.7917 74.6342 18.8283L69.1658 25.4101C68.9401 25.7279 68.7617 25.8906 68.6328 25.8906ZM74.4873 13.2115C74.2624 13.2115 73.3912 12.6417 71.897 11.5179C70.4028 10.394 69.1096 9.33394 68.0517 8.36906C67.7294 8.14414 67.5659 7.94847 67.5659 7.78878L73.5636 0.239159L73.955 0C74.2121 0 76.3451 1.51442 80.2938 4.49828L80.7316 4.88589L80.9228 5.22326L80.6342 5.75705L75.0203 12.7294C74.7954 13.0488 74.6162 13.2115 74.4873 13.2115Z" fill="white"/>
</mask>
<g mask="url(#mask7_95_441)">
<path d="M77.4345 37.1266L69.0437 28.795L81.5114 16.3865L77.4345 37.1266Z" fill="#26B195"/>
</g>
<mask id="mask8_95_441" style="mask-type:luminance" maskUnits="userSpaceOnUse" x="61" y="0" width="27" height="26">
<path d="M68.6328 25.8906C68.4078 25.8906 67.5832 25.3538 66.1879 24.2952C64.7927 23.2366 63.4005 22.0971 62.0473 20.9065C61.7264 20.6816 61.5645 20.4852 61.5645 20.3255L61.8568 19.8899L67.8088 12.6792L68.1949 12.4378C68.4198 12.4378 70.5753 13.9889 74.7767 17.1797L80.2938 10.5012L80.6829 10.2598C80.97 10.2598 83.1847 11.823 87.2646 14.9081L87.6995 15.2942L87.8937 15.6338L87.6013 16.1653L81.7468 23.2321C81.5218 23.553 81.3449 23.715 81.2152 23.715C80.9903 23.715 80.1176 23.1534 78.5522 21.9974C77.0131 20.8578 75.6943 19.7917 74.6342 18.8283L69.1658 25.4101C68.9401 25.7279 68.7617 25.8906 68.6328 25.8906ZM74.4873 13.2115C74.2624 13.2115 73.3912 12.6417 71.897 11.5179C70.4028 10.394 69.1096 9.33394 68.0517 8.36906C67.7294 8.14414 67.5659 7.94847 67.5659 7.78878L73.5636 0.239159L73.955 0C74.2121 0 76.3451 1.51442 80.2938 4.49828L80.7316 4.88589L80.9228 5.22326L80.6342 5.75705L75.0203 12.7294C74.7954 13.0488 74.6162 13.2115 74.4873 13.2115Z" fill="white"/>
</mask>
<g mask="url(#mask8_95_441)">
<path d="M51.6523 25.3674L61.4204 13.1951L69.0457 28.7944L51.6523 25.3674Z" fill="#1C2E5A"/>
</g>
<mask id="mask9_95_441" style="mask-type:luminance" maskUnits="userSpaceOnUse" x="61" y="0" width="27" height="26">
<path d="M68.6328 25.8906C68.4078 25.8906 67.5832 25.3538 66.1879 24.2952C64.7927 23.2366 63.4005 22.0971 62.0473 20.9065C61.7264 20.6816 61.5645 20.4852 61.5645 20.3255L61.8568 19.8899L67.8088 12.6792L68.1949 12.4378C68.4198 12.4378 70.5753 13.9889 74.7767 17.1797L80.2938 10.5012L80.6829 10.2598C80.97 10.2598 83.1847 11.823 87.2646 14.9081L87.6995 15.2942L87.8937 15.6338L87.6013 16.1653L81.7468 23.2321C81.5218 23.553 81.3449 23.715 81.2152 23.715C80.9903 23.715 80.1176 23.1534 78.5522 21.9974C77.0131 20.8578 75.6943 19.7917 74.6342 18.8283L69.1658 25.4101C68.9401 25.7279 68.7617 25.8906 68.6328 25.8906ZM74.4873 13.2115C74.2624 13.2115 73.3912 12.6417 71.897 11.5179C70.4028 10.394 69.1096 9.33394 68.0517 8.36906C67.7294 8.14414 67.5659 7.94847 67.5659 7.78878L73.5636 0.239159L73.955 0C74.2121 0 76.3451 1.51442 80.2938 4.49828L80.7316 4.88589L80.9228 5.22326L80.6342 5.75705L75.0203 12.7294C74.7954 13.0488 74.6162 13.2115 74.4873 13.2115Z" fill="white"/>
</mask>
<g mask="url(#mask9_95_441)">
<path d="M57.7895 47.053L51.6523 25.3668L69.0457 28.7945L57.7895 47.053Z" fill="#FFD300"/>
</g>
<mask id="mask10_95_441" style="mask-type:luminance" maskUnits="userSpaceOnUse" x="58" y="6" width="47" height="43">
<path d="M58.2339 6.38013V48.3746L104.841 47.7448V6.38013" fill="white"/>
</mask>
<g mask="url(#mask10_95_441)">
<path d="M99.9973 17.7907C99.5175 16.4398 98.8563 15.9292 98.1178 15.9292C96.2675 15.9292 93.9344 19.1425 92.7633 20.3683C90.1511 23.0968 87.2184 25.4993 84.0292 27.5235C79.132 30.6363 72.1005 34.2012 65.8171 34.2012C64.8714 34.2052 63.9275 34.1169 62.9989 33.9373C56.2433 32.6013 53.4918 25.6252 51.6895 19.7685C52.6379 22.8528 50.7276 26.8443 51.6895 29.9713C53.048 34.3887 54.7633 39.321 58.6214 42.1917C60.587 43.6183 62.9686 44.3562 65.3965 44.2909C68.2841 44.1758 71.1351 43.6036 73.8436 42.5958C78.9656 40.8739 83.7502 38.2766 87.9847 34.9195C90.2827 33.0481 92.4241 30.992 94.3872 28.7718C95.4623 27.5902 97.0862 26.2123 98.3225 26.2123C98.5451 26.2118 98.7645 26.2653 98.9619 26.3682C99.1594 26.4711 99.3289 26.6203 99.456 26.8031C99.7089 27.1926 99.8371 27.65 99.8234 28.1143C99.8421 28.6518 99.8594 29.1894 99.8864 29.7262C99.9231 30.4497 99.9493 31.1791 100.019 31.9004C100.049 30.0822 100.174 28.2669 100.394 26.4619C100.596 24.6624 100.66 22.85 100.583 21.0407C100.541 19.9356 100.344 18.8418 99.9981 17.7915" fill="#1C2E5A"/>
</g>
<path d="M56.2344 4.49976V50.254H93.142V31.8111L91.2228 33.5962V48.3745H58.2354V6.38004H66.3323L67.8212 4.49976H56.2344Z" fill="#26B195"/>
<path d="M5.10405 28.7334C5.15307 29.2753 5.03564 29.8193 4.76743 30.2928C4.59183 30.4838 4.37313 30.6302 4.12953 30.7197C3.88593 30.8091 3.62449 30.8391 3.36697 30.8071L0 30.8243V34.8293H5.44067C5.91644 34.8473 6.39087 34.7678 6.83477 34.5957C7.27868 34.4236 7.68268 34.1625 8.02194 33.8284C8.36936 33.4517 8.63694 33.0085 8.80856 32.5256C8.98019 32.0427 9.0523 31.53 9.02056 31.0185V15.4244H5.10405V28.7334Z" fill="#1C2E5A"/>
<path d="M18.4086 34.8644V36.0722H16.4279V41.3869H15.0071V36.0722H13.0354V34.8644H18.4086Z" fill="#26B195"/>
<path d="M24.7067 34.8644V41.3869H23.2823V38.5485H20.6193V41.3869H19.1948V34.8644H20.6193V37.3384H23.286V34.8644H24.7067Z" fill="#26B195"/>
<path d="M30.8621 34.8644V36.0722H27.3947V37.4606H30.575V38.5807H27.3947V40.1776H30.9273V41.3869H25.9702V34.8644H30.8621Z" fill="#26B195"/>
<path d="M38.9882 34.8644V41.3869H37.6387V39.4324C37.6387 38.3828 37.668 37.2812 37.7265 36.1276C37.513 36.9698 37.2891 37.7303 37.0547 38.409L36.0366 41.3869H34.9165L33.8707 38.4698C33.6055 37.712 33.3845 36.9395 33.2087 36.1561C33.2632 37.4331 33.2904 38.4743 33.2904 39.2794V41.3869H31.9409V34.8644H33.9651L34.9398 37.6968C35.165 38.3723 35.3458 39.0617 35.4811 39.7608C35.6254 39.0573 35.8124 38.3633 36.0411 37.6826L36.976 34.8644H38.9882Z" fill="#26B195"/>
<path d="M41.0897 41.3865H39.6233L42.1086 34.8512H43.581L46.0551 41.385H44.5609L44.0466 39.9238H41.6175L41.0927 41.3857L41.0897 41.3865ZM42.8396 36.2906C42.7331 36.6708 42.5832 37.1341 42.3815 37.7076L41.9609 38.8824H43.6957L43.2751 37.7076C43.1049 37.2434 42.9595 36.7704 42.8396 36.2906Z" fill="#26B195"/>
<path d="M48.1007 41.3866H46.6763V34.8641H49.8326C50.3288 34.8374 50.8235 34.9408 51.2675 35.164C51.5389 35.3173 51.7622 35.5431 51.9125 35.8161C52.0628 36.0891 52.1341 36.3986 52.1184 36.7099C52.1353 37.1595 51.9736 37.5975 51.6686 37.9282C51.5066 38.0986 51.3068 38.2286 51.0853 38.3075C51.3644 38.3739 51.6065 38.5466 51.7601 38.7889C51.8989 39.0222 51.9856 39.2828 52.0142 39.5528C52.0292 39.6443 52.0607 39.9509 52.1072 40.4645C52.1044 40.7579 52.1702 41.048 52.2991 41.3116L52.3584 41.3866H50.8747C50.83 41.2939 50.7973 41.1959 50.7772 41.095C50.7555 40.9968 50.7232 40.6451 50.6797 40.0454C50.6894 39.8458 50.6531 39.6466 50.5737 39.4632C50.4942 39.2798 50.3738 39.1171 50.2217 38.9875C49.9608 38.8583 49.6702 38.8009 49.3797 38.8211H48.1007V41.3866ZM48.1007 35.9887V37.7797H49.4502C49.7701 37.806 50.0909 37.7418 50.3761 37.5946C50.4886 37.5134 50.5787 37.405 50.6379 37.2795C50.697 37.154 50.7233 37.0155 50.7142 36.8771C50.7285 36.7152 50.692 36.5529 50.61 36.4127C50.5279 36.2725 50.4042 36.1612 50.2562 36.0944C50.019 36.009 49.7672 35.9712 49.5154 35.9834L48.1007 35.9887Z" fill="#26B195"/>
<path d="M44.8907 18.8535C44.5355 18.6915 44.2069 18.4766 43.9161 18.2163C43.3553 17.7904 42.7997 17.3361 42.2667 16.8668C42.1377 16.7746 42.0725 16.6996 42.0725 16.6344L42.1887 16.4604L44.5631 13.5845L44.7168 13.4878C45.6302 14.0627 46.5066 14.6945 47.3407 15.3793L49.5419 12.7156L49.6971 12.6189C50.6188 13.1669 51.4962 13.7863 52.3211 14.4714L52.4943 14.6251L52.5693 14.7608L52.456 14.9753L50.1214 17.7927C50.0337 17.9186 49.9603 17.9854 49.9093 17.9854C49.5249 17.8074 49.1673 17.5765 48.8469 17.2994C48.2389 16.8495 47.7134 16.4252 47.2845 16.0353L45.1036 18.6593C45.0136 18.7883 44.9424 18.8535 44.8907 18.8535ZM47.226 13.7959C46.8511 13.6217 46.5032 13.3944 46.1929 13.1212C45.5977 12.6714 45.0819 12.2515 44.659 11.8669C44.5308 11.777 44.4656 11.699 44.4656 11.6353L46.8594 8.62442L47.0139 8.52771C47.8989 9.06403 48.7438 9.66388 49.5419 10.3225L49.7196 10.477L49.7946 10.6119L49.6799 10.8248L47.4382 13.604C47.349 13.7315 47.2778 13.7959 47.226 13.7959Z" fill="#1C2E5A"/>
<path d="M45.4381 31.353H35.7795V31.3358H16.0733C15.0086 31.4156 13.9548 31.077 13.1359 30.3919C12.7883 30.0118 12.5221 29.5645 12.3537 29.0777C12.1853 28.5908 12.1183 28.0747 12.1568 27.561V11.2037H16.0553V25.8067C16.0251 26.0682 16.0575 26.3332 16.1499 26.5797C16.2424 26.8262 16.3921 27.0472 16.5868 27.2244C17.0261 27.461 17.5245 27.5652 18.0218 27.5243H22.3402V19.8824H34.5882V27.5085L36.8254 27.525H44.1973V27.507L46.1826 27.525H46.4547C46.9476 27.5574 47.4424 27.509 47.9196 27.3818C48.3897 27.1704 48.6281 26.6321 48.6281 25.7864V19.9581H52.5094V27.4898C52.548 28.0127 52.4799 28.538 52.3093 29.0338C52.1386 29.5296 51.869 29.9855 51.5168 30.3739C50.693 31.0707 49.6283 31.4159 48.5524 31.3351H45.4336V31.3515L45.4381 31.353ZM26.3106 23.7494V27.4913H26.546V27.507H29.4879C29.5697 27.5071 29.6513 27.5019 29.7323 27.4913H30.7339V23.7494H29.7338C29.6523 23.7382 29.5702 23.7327 29.4879 23.733H26.546V23.7494H26.3106Z" fill="#1C2E5A"/>
</svg>
