<svg width="19" height="17" viewBox="0 0 19 17" fill="none" xmlns="http://www.w3.org/2000/svg">
<path d="M17.8171 7.28078C17.6411 6.78537 17.3986 6.59814 17.1278 6.59814C16.4493 6.59814 15.5938 7.77647 15.1643 8.22597C14.2064 9.22654 13.131 10.1076 11.9615 10.8498C10.1657 11.9913 7.58715 13.2986 5.28301 13.2986C4.9362 13.3001 4.59008 13.2676 4.24957 13.2018C1.77224 12.7119 0.763266 10.1537 0.102349 8.00603C0.450127 9.13707 -0.250378 10.6008 0.102349 11.7475C0.600511 13.3673 1.22954 15.176 2.64429 16.2287C3.36511 16.7519 4.23845 17.0225 5.12878 16.9985C6.18766 16.9563 7.23316 16.7465 8.22635 16.3769C10.1046 15.7455 11.8592 14.793 13.412 13.562C14.2547 12.8757 15.0399 12.1217 15.7598 11.3076C16.154 10.8743 16.7495 10.369 17.2029 10.369C17.2845 10.3688 17.365 10.3884 17.4374 10.4262C17.5098 10.4639 17.5719 10.5186 17.6186 10.5856C17.7113 10.7285 17.7583 10.8962 17.7533 11.0665C17.7602 11.2636 17.7665 11.4607 17.7764 11.6576C17.7898 11.9229 17.7995 12.1904 17.825 12.4548C17.8359 11.7881 17.8817 11.1224 17.9625 10.4605C18.0367 9.80066 18.0599 9.13603 18.0318 8.47257C18.0165 8.06731 17.9443 7.66621 17.8173 7.28106" fill="#1C2E5A"/>
<mask id="mask0_95_1102" style="mask-type:luminance" maskUnits="userSpaceOnUse" x="4" y="0" width="10" height="10">
<path d="M6.83759 9.49422C6.75511 9.49422 6.45269 9.29737 5.94106 8.90918C5.42943 8.52099 4.91889 8.1031 4.42266 7.66652C4.30499 7.58405 4.24561 7.51202 4.24561 7.45346L4.35283 7.29373L6.53545 4.64951L6.67703 4.56099C6.75951 4.56099 7.54991 5.1298 9.09059 6.29988L11.1138 3.85086L11.2564 3.76233C11.3617 3.76233 12.1739 4.33555 13.67 5.46686L13.8294 5.60844L13.9007 5.73299L13.7934 5.92791L11.6466 8.51934C11.5641 8.637 11.4992 8.69639 11.4516 8.69639C11.3692 8.69639 11.0491 8.49047 10.4751 8.06654C9.91068 7.64865 9.42709 7.25771 9.03835 6.90444L7.03306 9.31799C6.95031 9.43456 6.88487 9.49422 6.83759 9.49422ZM8.98447 4.84471C8.90199 4.84471 8.58253 4.63576 8.0346 4.22365C7.48668 3.81154 7.01244 3.4228 6.62452 3.06897C6.5063 2.9865 6.44637 2.91474 6.44637 2.85618L8.64576 0.0877007L8.78927 0C8.88357 0 9.66573 0.555346 11.1138 1.64954L11.2743 1.79168L11.3444 1.91539L11.2386 2.11114L9.17994 4.66793C9.09746 4.78505 9.03175 4.84471 8.98447 4.84471Z" fill="white"/>
</mask>
<g mask="url(#mask0_95_1102)">
<path d="M13.9005 2.30713L8.52661 -1.2721L13.9005 -4.04553V2.30713Z" fill="#EE4D42"/>
</g>
<mask id="mask1_95_1102" style="mask-type:luminance" maskUnits="userSpaceOnUse" x="4" y="0" width="10" height="10">
<path d="M6.83759 9.49422C6.75511 9.49422 6.45269 9.29737 5.94106 8.90918C5.42943 8.52099 4.91889 8.1031 4.42266 7.66652C4.30499 7.58405 4.24561 7.51202 4.24561 7.45346L4.35283 7.29373L6.53545 4.64951L6.67703 4.56099C6.75951 4.56099 7.54991 5.1298 9.09059 6.29988L11.1138 3.85086L11.2564 3.76233C11.3617 3.76233 12.1739 4.33555 13.67 5.46686L13.8294 5.60844L13.9007 5.73299L13.7934 5.92791L11.6466 8.51934C11.5641 8.637 11.4992 8.69639 11.4516 8.69639C11.3692 8.69639 11.0491 8.49047 10.4751 8.06654C9.91068 7.64865 9.42709 7.25771 9.03835 6.90444L7.03306 9.31799C6.95031 9.43456 6.88487 9.49422 6.83759 9.49422ZM8.98447 4.84471C8.90199 4.84471 8.58253 4.63576 8.0346 4.22365C7.48668 3.81154 7.01244 3.4228 6.62452 3.06897C6.5063 2.9865 6.44637 2.91474 6.44637 2.85618L8.64576 0.0877007L8.78927 0C8.88357 0 9.66573 0.555346 11.1138 1.64954L11.2743 1.79168L11.3444 1.91539L11.2386 2.11114L9.17994 4.66793C9.09746 4.78505 9.03175 4.84471 8.98447 4.84471Z" fill="white"/>
</mask>
<g mask="url(#mask1_95_1102)">
<path d="M8.52661 -1.27173L11.5601 6.0088L13.9003 2.30723L8.52661 -1.27173Z" fill="#1C2E5A"/>
</g>
<mask id="mask2_95_1102" style="mask-type:luminance" maskUnits="userSpaceOnUse" x="4" y="0" width="10" height="10">
<path d="M6.83759 9.49422C6.75511 9.49422 6.45269 9.29737 5.94106 8.90918C5.42943 8.52099 4.91889 8.1031 4.42266 7.66652C4.30499 7.58405 4.24561 7.51202 4.24561 7.45346L4.35283 7.29373L6.53545 4.64951L6.67703 4.56099C6.75951 4.56099 7.54991 5.1298 9.09059 6.29988L11.1138 3.85086L11.2564 3.76233C11.3617 3.76233 12.1739 4.33555 13.67 5.46686L13.8294 5.60844L13.9007 5.73299L13.7934 5.92791L11.6466 8.51934C11.5641 8.637 11.4992 8.69639 11.4516 8.69639C11.3692 8.69639 11.0491 8.49047 10.4751 8.06654C9.91068 7.64865 9.42709 7.25771 9.03835 6.90444L7.03306 9.31799C6.95031 9.43456 6.88487 9.49422 6.83759 9.49422ZM8.98447 4.84471C8.90199 4.84471 8.58253 4.63576 8.0346 4.22365C7.48668 3.81154 7.01244 3.4228 6.62452 3.06897C6.5063 2.9865 6.44637 2.91474 6.44637 2.85618L8.64576 0.0877007L8.78927 0C8.88357 0 9.66573 0.555346 11.1138 1.64954L11.2743 1.79168L11.3444 1.91539L11.2386 2.11114L9.17994 4.66793C9.09746 4.78505 9.03175 4.84471 8.98447 4.84471Z" fill="white"/>
</mask>
<g mask="url(#mask2_95_1102)">
<path d="M13.9002 9.77901L11.5601 6.0087L13.9002 2.30713V9.77901Z" fill="#1C2E5A"/>
</g>
<mask id="mask3_95_1102" style="mask-type:luminance" maskUnits="userSpaceOnUse" x="4" y="0" width="10" height="10">
<path d="M6.83759 9.49422C6.75511 9.49422 6.45269 9.29737 5.94106 8.90918C5.42943 8.52099 4.91889 8.1031 4.42266 7.66652C4.30499 7.58405 4.24561 7.51202 4.24561 7.45346L4.35283 7.29373L6.53545 4.64951L6.67703 4.56099C6.75951 4.56099 7.54991 5.1298 9.09059 6.29988L11.1138 3.85086L11.2564 3.76233C11.3617 3.76233 12.1739 4.33555 13.67 5.46686L13.8294 5.60844L13.9007 5.73299L13.7934 5.92791L11.6466 8.51934C11.5641 8.637 11.4992 8.69639 11.4516 8.69639C11.3692 8.69639 11.0491 8.49047 10.4751 8.06654C9.91068 7.64865 9.42709 7.25771 9.03835 6.90444L7.03306 9.31799C6.95031 9.43456 6.88487 9.49422 6.83759 9.49422ZM8.98447 4.84471C8.90199 4.84471 8.58253 4.63576 8.0346 4.22365C7.48668 3.81154 7.01244 3.4228 6.62452 3.06897C6.5063 2.9865 6.44637 2.91474 6.44637 2.85618L8.64576 0.0877007L8.78927 0C8.88357 0 9.66573 0.555346 11.1138 1.64954L11.2743 1.79168L11.3444 1.91539L11.2386 2.11114L9.17994 4.66793C9.09746 4.78505 9.03175 4.84471 8.98447 4.84471Z" fill="white"/>
</mask>
<g mask="url(#mask3_95_1102)">
<path d="M4.19283 4.83975L3.66772 -3.6554L8.52673 -1.27208L4.19283 4.83975Z" fill="#1C2E5A"/>
</g>
<mask id="mask4_95_1102" style="mask-type:luminance" maskUnits="userSpaceOnUse" x="4" y="0" width="10" height="10">
<path d="M6.83759 9.49422C6.75511 9.49422 6.45269 9.29737 5.94106 8.90918C5.42943 8.52099 4.91889 8.1031 4.42266 7.66652C4.30499 7.58405 4.24561 7.51202 4.24561 7.45346L4.35283 7.29373L6.53545 4.64951L6.67703 4.56099C6.75951 4.56099 7.54991 5.1298 9.09059 6.29988L11.1138 3.85086L11.2564 3.76233C11.3617 3.76233 12.1739 4.33555 13.67 5.46686L13.8294 5.60844L13.9007 5.73299L13.7934 5.92791L11.6466 8.51934C11.5641 8.637 11.4992 8.69639 11.4516 8.69639C11.3692 8.69639 11.0491 8.49047 10.4751 8.06654C9.91068 7.64865 9.42709 7.25771 9.03835 6.90444L7.03306 9.31799C6.95031 9.43456 6.88487 9.49422 6.83759 9.49422ZM8.98447 4.84471C8.90199 4.84471 8.58253 4.63576 8.0346 4.22365C7.48668 3.81154 7.01244 3.4228 6.62452 3.06897C6.5063 2.9865 6.44637 2.91474 6.44637 2.85618L8.64576 0.0877007L8.78927 0C8.88357 0 9.66573 0.555346 11.1138 1.64954L11.2743 1.79168L11.3444 1.91539L11.2386 2.11114L9.17994 4.66793C9.09746 4.78505 9.03175 4.84471 8.98447 4.84471Z" fill="white"/>
</mask>
<g mask="url(#mask4_95_1102)">
<path d="M11.5611 6.0088L4.19312 4.83873L8.52674 -1.27173L11.5611 6.0088Z" fill="#1C2E5A"/>
</g>
<mask id="mask5_95_1102" style="mask-type:luminance" maskUnits="userSpaceOnUse" x="4" y="0" width="10" height="10">
<path d="M6.83759 9.49422C6.75511 9.49422 6.45269 9.29737 5.94106 8.90918C5.42943 8.52099 4.91889 8.1031 4.42266 7.66652C4.30499 7.58405 4.24561 7.51202 4.24561 7.45346L4.35283 7.29373L6.53545 4.64951L6.67703 4.56099C6.75951 4.56099 7.54991 5.1298 9.09059 6.29988L11.1138 3.85086L11.2564 3.76233C11.3617 3.76233 12.1739 4.33555 13.67 5.46686L13.8294 5.60844L13.9007 5.73299L13.7934 5.92791L11.6466 8.51934C11.5641 8.637 11.4992 8.69639 11.4516 8.69639C11.3692 8.69639 11.0491 8.49047 10.4751 8.06654C9.91068 7.64865 9.42709 7.25771 9.03835 6.90444L7.03306 9.31799C6.95031 9.43456 6.88487 9.49422 6.83759 9.49422ZM8.98447 4.84471C8.90199 4.84471 8.58253 4.63576 8.0346 4.22365C7.48668 3.81154 7.01244 3.4228 6.62452 3.06897C6.5063 2.9865 6.44637 2.91474 6.44637 2.85618L8.64576 0.0877007L8.78927 0C8.88357 0 9.66573 0.555346 11.1138 1.64954L11.2743 1.79168L11.3444 1.91539L11.2386 2.11114L9.17994 4.66793C9.09746 4.78505 9.03175 4.84471 8.98447 4.84471Z" fill="white"/>
</mask>
<g mask="url(#mask5_95_1102)">
<path d="M10.0649 13.6143L11.56 6.00879L13.9001 9.77909L10.0649 13.6143Z" fill="#1C2E5A"/>
</g>
<mask id="mask6_95_1102" style="mask-type:luminance" maskUnits="userSpaceOnUse" x="4" y="0" width="10" height="10">
<path d="M6.83759 9.49422C6.75511 9.49422 6.45269 9.29737 5.94106 8.90918C5.42943 8.52099 4.91889 8.1031 4.42266 7.66652C4.30499 7.58405 4.24561 7.51202 4.24561 7.45346L4.35283 7.29373L6.53545 4.64951L6.67703 4.56099C6.75951 4.56099 7.54991 5.1298 9.09059 6.29988L11.1138 3.85086L11.2564 3.76233C11.3617 3.76233 12.1739 4.33555 13.67 5.46686L13.8294 5.60844L13.9007 5.73299L13.7934 5.92791L11.6466 8.51934C11.5641 8.637 11.4992 8.69639 11.4516 8.69639C11.3692 8.69639 11.0491 8.49047 10.4751 8.06654C9.91068 7.64865 9.42709 7.25771 9.03835 6.90444L7.03306 9.31799C6.95031 9.43456 6.88487 9.49422 6.83759 9.49422ZM8.98447 4.84471C8.90199 4.84471 8.58253 4.63576 8.0346 4.22365C7.48668 3.81154 7.01244 3.4228 6.62452 3.06897C6.5063 2.9865 6.44637 2.91474 6.44637 2.85618L8.64576 0.0877007L8.78927 0C8.88357 0 9.66573 0.555346 11.1138 1.64954L11.2743 1.79168L11.3444 1.91539L11.2386 2.11114L9.17994 4.66793C9.09746 4.78505 9.03175 4.84471 8.98447 4.84471Z" fill="white"/>
</mask>
<g mask="url(#mask6_95_1102)">
<path d="M4.19312 4.83862L6.98827 10.559L11.5611 6.0087L4.19312 4.83862Z" fill="#1C2E5A"/>
</g>
<mask id="mask7_95_1102" style="mask-type:luminance" maskUnits="userSpaceOnUse" x="4" y="0" width="10" height="10">
<path d="M6.83759 9.49422C6.75511 9.49422 6.45269 9.29737 5.94106 8.90918C5.42943 8.52099 4.91889 8.1031 4.42266 7.66652C4.30499 7.58405 4.24561 7.51202 4.24561 7.45346L4.35283 7.29373L6.53545 4.64951L6.67703 4.56099C6.75951 4.56099 7.54991 5.1298 9.09059 6.29988L11.1138 3.85086L11.2564 3.76233C11.3617 3.76233 12.1739 4.33555 13.67 5.46686L13.8294 5.60844L13.9007 5.73299L13.7934 5.92791L11.6466 8.51934C11.5641 8.637 11.4992 8.69639 11.4516 8.69639C11.3692 8.69639 11.0491 8.49047 10.4751 8.06654C9.91068 7.64865 9.42709 7.25771 9.03835 6.90444L7.03306 9.31799C6.95031 9.43456 6.88487 9.49422 6.83759 9.49422ZM8.98447 4.84471C8.90199 4.84471 8.58253 4.63576 8.0346 4.22365C7.48668 3.81154 7.01244 3.4228 6.62452 3.06897C6.5063 2.9865 6.44637 2.91474 6.44637 2.85618L8.64576 0.0877007L8.78927 0C8.88357 0 9.66573 0.555346 11.1138 1.64954L11.2743 1.79168L11.3444 1.91539L11.2386 2.11114L9.17994 4.66793C9.09746 4.78505 9.03175 4.84471 8.98447 4.84471Z" fill="white"/>
</mask>
<g mask="url(#mask7_95_1102)">
<path d="M10.0652 13.6143L6.98828 10.5591L11.5603 6.00879L10.0652 13.6143Z" fill="#1C2E5A"/>
</g>
<mask id="mask8_95_1102" style="mask-type:luminance" maskUnits="userSpaceOnUse" x="4" y="0" width="10" height="10">
<path d="M6.83759 9.49422C6.75511 9.49422 6.45269 9.29737 5.94106 8.90918C5.42943 8.52099 4.91889 8.1031 4.42266 7.66652C4.30499 7.58405 4.24561 7.51202 4.24561 7.45346L4.35283 7.29373L6.53545 4.64951L6.67703 4.56099C6.75951 4.56099 7.54991 5.1298 9.09059 6.29988L11.1138 3.85086L11.2564 3.76233C11.3617 3.76233 12.1739 4.33555 13.67 5.46686L13.8294 5.60844L13.9007 5.73299L13.7934 5.92791L11.6466 8.51934C11.5641 8.637 11.4992 8.69639 11.4516 8.69639C11.3692 8.69639 11.0491 8.49047 10.4751 8.06654C9.91068 7.64865 9.42709 7.25771 9.03835 6.90444L7.03306 9.31799C6.95031 9.43456 6.88487 9.49422 6.83759 9.49422ZM8.98447 4.84471C8.90199 4.84471 8.58253 4.63576 8.0346 4.22365C7.48668 3.81154 7.01244 3.4228 6.62452 3.06897C6.5063 2.9865 6.44637 2.91474 6.44637 2.85618L8.64576 0.0877007L8.78927 0C8.88357 0 9.66573 0.555346 11.1138 1.64954L11.2743 1.79168L11.3444 1.91539L11.2386 2.11114L9.17994 4.66793C9.09746 4.78505 9.03175 4.84471 8.98447 4.84471Z" fill="white"/>
</mask>
<g mask="url(#mask8_95_1102)">
<path d="M0.61084 9.30228L4.19282 4.83862L6.98907 10.559L0.61084 9.30228Z" fill="#1C2E5A"/>
</g>
<mask id="mask9_95_1102" style="mask-type:luminance" maskUnits="userSpaceOnUse" x="4" y="0" width="10" height="10">
<path d="M6.83759 9.49422C6.75511 9.49422 6.45269 9.29737 5.94106 8.90918C5.42943 8.52099 4.91889 8.1031 4.42266 7.66652C4.30499 7.58405 4.24561 7.51202 4.24561 7.45346L4.35283 7.29373L6.53545 4.64951L6.67703 4.56099C6.75951 4.56099 7.54991 5.1298 9.09059 6.29988L11.1138 3.85086L11.2564 3.76233C11.3617 3.76233 12.1739 4.33555 13.67 5.46686L13.8294 5.60844L13.9007 5.73299L13.7934 5.92791L11.6466 8.51934C11.5641 8.637 11.4992 8.69639 11.4516 8.69639C11.3692 8.69639 11.0491 8.49047 10.4751 8.06654C9.91068 7.64865 9.42709 7.25771 9.03835 6.90444L7.03306 9.31799C6.95031 9.43456 6.88487 9.49422 6.83759 9.49422ZM8.98447 4.84471C8.90199 4.84471 8.58253 4.63576 8.0346 4.22365C7.48668 3.81154 7.01244 3.4228 6.62452 3.06897C6.5063 2.9865 6.44637 2.91474 6.44637 2.85618L8.64576 0.0877007L8.78927 0C8.88357 0 9.66573 0.555346 11.1138 1.64954L11.2743 1.79168L11.3444 1.91539L11.2386 2.11114L9.17994 4.66793C9.09746 4.78505 9.03175 4.84471 8.98447 4.84471Z" fill="white"/>
</mask>
<g mask="url(#mask9_95_1102)">
<path d="M2.86137 17.2546L0.61084 9.30212L6.98907 10.5591L2.86137 17.2546Z" fill="#FFD300"/>
</g>
</svg>
