<svg width="8" height="12" viewBox="0 0 8 12" fill="none" xmlns="http://www.w3.org/2000/svg">
<path d="M6.70992 9.87999L2.82992 5.99999L6.70992 2.11999C6.80251 2.02741 6.87595 1.9175 6.92605 1.79653C6.97616 1.67557 7.00195 1.54592 7.00195 1.41499C7.00195 1.28406 6.97616 1.15441 6.92605 1.03345C6.87595 0.912482 6.80251 0.802571 6.70992 0.70999C6.61734 0.617408 6.50743 0.543968 6.38647 0.493863C6.2655 0.443758 6.13586 0.417969 6.00492 0.417969C5.87399 0.417969 5.74435 0.443758 5.62338 0.493863C5.50242 0.543968 5.39251 0.617408 5.29992 0.70999L0.709925 5.29999C0.617221 5.3925 0.543674 5.50239 0.493492 5.62337C0.443311 5.74434 0.41748 5.87402 0.41748 6.00499C0.41748 6.13596 0.443311 6.26564 0.493492 6.38661C0.543674 6.50759 0.617221 6.61748 0.709925 6.70999L5.29992 11.3C5.68992 11.69 6.31992 11.69 6.70992 11.3C7.08992 10.91 7.09992 10.27 6.70992 9.87999Z" fill="#7E7E7E"/>
</svg>
