<svg width="8" height="12" viewBox="0 0 8 12" fill="none" xmlns="http://www.w3.org/2000/svg">
<path d="M1.29001 9.87999L5.17001 5.99999L1.29001 2.11999C1.19742 2.02741 1.12399 1.9175 1.07388 1.79653C1.02378 1.67557 0.997986 1.54592 0.997986 1.41499C0.997986 1.28406 1.02378 1.15441 1.07388 1.03345C1.12399 0.912482 1.19742 0.802571 1.29001 0.70999C1.38259 0.617408 1.4925 0.543968 1.61346 0.493863C1.73443 0.443758 1.86408 0.417969 1.99501 0.417969C2.12594 0.417969 2.25559 0.443758 2.37655 0.493863C2.49751 0.543968 2.60742 0.617408 2.70001 0.70999L7.29001 5.29999C7.68001 5.68999 7.68001 6.31999 7.29001 6.70999L2.70001 11.3C2.60749 11.3927 2.4976 11.4662 2.37663 11.5164C2.25566 11.5666 2.12598 11.5924 1.99501 11.5924C1.86404 11.5924 1.73436 11.5666 1.61338 11.5164C1.49241 11.4662 1.38252 11.3927 1.29001 11.3C0.910007 10.91 0.900007 10.27 1.29001 9.87999Z" fill="#080D1B"/>
</svg>
