<svg width="20" height="17" viewBox="0 0 20 17" fill="none" xmlns="http://www.w3.org/2000/svg">
<path d="M20 1.9196C19.2478 2.24751 18.4523 2.46541 17.638 2.5666C18.4949 2.05679 19.1353 1.25063 19.438 0.300604C18.6343 0.777445 17.7549 1.11329 16.838 1.2936C16.2757 0.694688 15.5464 0.278514 14.7447 0.0990379C13.943 -0.0804379 13.1059 -0.0149376 12.3419 0.287047C11.5779 0.589031 10.9222 1.11357 10.4599 1.79266C9.99754 2.47175 9.74988 3.27407 9.749 4.0956C9.74741 4.41002 9.78095 4.72363 9.849 5.0306C8.21718 4.95144 6.62047 4.52866 5.1633 3.78991C3.70613 3.05116 2.42135 2.01309 1.393 0.743604C0.865009 1.64555 0.701391 2.71508 0.935582 3.73363C1.16977 4.75218 1.78409 5.64284 2.653 6.2236C2.00369 6.20601 1.36814 6.03246 0.8 5.7176V5.7626C0.800157 6.71011 1.12697 7.62859 1.72536 8.36324C2.32375 9.09788 3.15712 9.60376 4.085 9.7956C3.73423 9.88805 3.37273 9.93345 3.01 9.9306C2.74957 9.93522 2.4894 9.91175 2.234 9.8606C2.49899 10.6743 3.00966 11.3858 3.69573 11.8973C4.3818 12.4087 5.20954 12.695 6.065 12.7166C4.61306 13.8503 2.82309 14.4646 0.981 14.4616C0.65314 14.4639 0.325469 14.4452 0 14.4056C1.87486 15.6138 4.0596 16.2528 6.29 16.2456C7.82533 16.2562 9.34746 15.9617 10.768 15.3791C12.1885 14.7965 13.4792 13.9375 14.5649 12.852C15.6507 11.7664 16.5099 10.4759 17.0928 9.05546C17.6756 7.63502 17.9704 6.11293 17.96 4.5776C17.96 4.3966 17.954 4.2216 17.945 4.0476C18.7536 3.46906 19.45 2.74794 20 1.9196Z" fill="black"/>
</svg>
