<svg width="20" height="20" viewBox="0 0 20 20" fill="none" xmlns="http://www.w3.org/2000/svg">
<path d="M15 1.34001C16.5083 2.21087 17.7629 3.46054 18.6398 4.96531C19.5167 6.47009 19.9854 8.17779 19.9994 9.91935C20.0135 11.6609 19.5725 13.376 18.72 14.8947C17.8676 16.4135 16.6332 17.6832 15.1392 18.5783C13.6452 19.4734 11.9434 19.9628 10.2021 19.9981C8.46083 20.0333 6.74055 19.6132 5.21155 18.7793C3.68256 17.9453 2.39787 16.7265 1.48467 15.2435C0.571462 13.7605 0.0614093 12.0647 0.00500011 10.324L0 10L0.00500011 9.67601C0.0610032 7.94901 0.563548 6.26598 1.46364 4.79101C2.36373 3.31604 3.63065 2.09947 5.14089 1.2599C6.65113 0.420327 8.35315 -0.0135887 10.081 0.000452316C11.8089 0.0144933 13.5036 0.476012 15 1.34001ZM10 9.00001H9L8.883 9.00701C8.6299 9.03712 8.39785 9.16273 8.23426 9.35818C8.07067 9.55363 7.98789 9.80418 8.00283 10.0586C8.01777 10.3131 8.1293 10.5522 8.31463 10.7272C8.49997 10.9021 8.74512 10.9997 9 11V14L9.007 14.117C9.03566 14.3603 9.15259 14.5845 9.33563 14.7473C9.51866 14.9101 9.75507 15 10 15H11L11.117 14.993C11.3603 14.9644 11.5845 14.8474 11.7473 14.6644C11.91 14.4814 12 14.2449 12 14L11.993 13.883C11.9667 13.6598 11.8659 13.452 11.707 13.293C11.5481 13.1341 11.3402 13.0333 11.117 13.007L11 13V10L10.993 9.88301C10.9643 9.63976 10.8474 9.41549 10.6644 9.25273C10.4813 9.08997 10.2449 9.00005 10 9.00001ZM10.01 5.00001L9.883 5.00701C9.6299 5.03712 9.39785 5.16273 9.23426 5.35818C9.07067 5.55364 8.98789 5.80418 9.00283 6.05862C9.01777 6.31306 9.1293 6.5522 9.31463 6.72717C9.49997 6.90214 9.74512 6.99973 10 7.00001L10.127 6.99301C10.3801 6.96291 10.6121 6.8373 10.7757 6.64185C10.9393 6.44639 11.0221 6.19585 11.0072 5.94141C10.9922 5.68697 10.8807 5.44783 10.6954 5.27286C10.51 5.09789 10.2649 5.0003 10.01 5.00001Z" fill="#979797"/>
</svg>
